0
SECTION
2
HEADER
9
$INSUNITS
70
4
0
ENDSEC
0
SECTION
2
TABLES
0
TABLE
2
LTYPE
0
LTYPE
72
65
70
64
2
CONTINUOUS
3
______
73
0
40
0
0
ENDTAB
0
TABLE
2
LAYER
0
ENDTAB
0
ENDSEC
0
SECTION
2
ENTITIES
0
LINE
8
0
10
-21.43125
20
65.175
11
-21.43125
21
-27.075
0
LINE
8
0
10
-19.93125
20
-28.575
11
10.0466357
21
-28.575
0
LINE
8
0
10
23.2908643
20
-28.575
11
114.8216357
21
-28.575
0
LINE
8
0
10
128.0658643
20
-28.575
11
219.5966357
21
-28.575
0
LINE
8
0
10
232.8408643
20
-28.575
11
262.81875
21
-28.575
0
LINE
8
0
10
264.31875
20
-27.075
11
264.31875
21
65.175
0
LINE
8
0
10
262.81875
20
66.675
11
235.3658643
21
66.675
0
LINE
8
0
10
222.1216357
20
66.675
11
128.0658643
21
66.675
0
LINE
8
0
10
114.8216357
20
66.675
11
20.7658643
21
66.675
0
LINE
8
0
10
7.5216357
20
66.675
11
-19.93125
21
66.675
0
ARC
8
0
10
-19.93125
20
-27.075
40
1.5
50
180
51
270
0
ARC
8
0
10
262.81875
20
-27.075
40
1.5
50
270
51
0
0
ARC
8
0
10
262.81875
20
65.175
40
1.5
50
0
51
90
0
ARC
8
0
10
-19.93125
20
65.175
40
1.5
50
90
51
180
0
LINE
8
0
10
-6.5
20
-7
11
6.5
21
-7
0
LINE
8
0
10
7
20
-6.5
11
7
21
6.5
0
LINE
8
0
10
6.5
20
7
11
-6.5
21
7
0
LINE
8
0
10
-7
20
6.5
11
-7
21
-6.5
0
LINE
8
0
10
-16.025
20
12.05
11
1.7375
21
12.05
0
LINE
8
0
10
2.2375
20
12.55
11
2.2375
21
25.55
0
LINE
8
0
10
-16.025
20
26.05
11
1.7375
21
26.05
0
LINE
8
0
10
-13.64375
20
31.1
11
-0.64375
21
31.1
0
LINE
8
0
10
-0.14375
20
31.6
11
-0.14375
21
44.6
0
LINE
8
0
10
-0.64375
20
45.1
11
-13.64375
21
45.1
0
LINE
8
0
10
-14.14375
20
44.6
11
-14.14375
21
31.6
0
LINE
8
0
10
-18.40625
20
50.15
11
-5.40625
21
50.15
0
LINE
8
0
10
-4.90625
20
50.65
11
-4.90625
21
63.65
0
LINE
8
0
10
-5.40625
20
64.15
11
-18.40625
21
64.15
0
LINE
8
0
10
-18.90625
20
63.65
11
-18.90625
21
50.65
0
LINE
8
0
10
-16.525
20
25.55
11
-16.525
21
12.55
0
LINE
8
0
10
24.45625
20
-7
11
37.45625
21
-7
0
LINE
8
0
10
37.95625
20
-6.5
11
37.95625
21
6.5
0
LINE
8
0
10
37.45625
20
7
11
24.45625
21
7
0
LINE
8
0
10
23.95625
20
6.5
11
23.95625
21
-6.5
0
LINE
8
0
10
14.93125
20
12.05
11
27.93125
21
12.05
0
LINE
8
0
10
28.43125
20
12.55
11
28.43125
21
25.55
0
LINE
8
0
10
27.93125
20
26.05
11
14.93125
21
26.05
0
LINE
8
0
10
14.43125
20
25.55
11
14.43125
21
12.55
0
LINE
8
0
10
10.16875
20
31.1
11
23.16875
21
31.1
0
LINE
8
0
10
23.66875
20
31.6
11
23.66875
21
44.6
0
LINE
8
0
10
23.16875
20
45.1
11
10.16875
21
45.1
0
LINE
8
0
10
9.66875
20
44.6
11
9.66875
21
31.6
0
LINE
8
0
10
0.64375
20
50.15
11
13.64375
21
50.15
0
LINE
8
0
10
14.14375
20
50.65
11
14.14375
21
63.65
0
LINE
8
0
10
13.64375
20
64.15
11
0.64375
21
64.15
0
LINE
8
0
10
0.14375
20
63.65
11
0.14375
21
50.65
0
LINE
8
0
10
43.50625
20
-7
11
56.50625
21
-7
0
LINE
8
0
10
57.00625
20
-6.5
11
57.00625
21
6.5
0
LINE
8
0
10
56.50625
20
7
11
43.50625
21
7
0
LINE
8
0
10
43.00625
20
6.5
11
43.00625
21
-6.5
0
LINE
8
0
10
33.98125
20
12.05
11
46.98125
21
12.05
0
LINE
8
0
10
47.48125
20
12.55
11
47.48125
21
25.55
0
LINE
8
0
10
46.98125
20
26.05
11
33.98125
21
26.05
0
LINE
8
0
10
33.48125
20
25.55
11
33.48125
21
12.55
0
LINE
8
0
10
29.21875
20
31.1
11
42.21875
21
31.1
0
LINE
8
0
10
42.71875
20
31.6
11
42.71875
21
44.6
0
LINE
8
0
10
42.21875
20
45.1
11
29.21875
21
45.1
0
LINE
8
0
10
28.71875
20
44.6
11
28.71875
21
31.6
0
LINE
8
0
10
19.69375
20
50.15
11
32.69375
21
50.15
0
LINE
8
0
10
33.19375
20
50.65
11
33.19375
21
63.65
0
LINE
8
0
10
32.69375
20
64.15
11
19.69375
21
64.15
0
LINE
8
0
10
19.19375
20
63.65
11
19.19375
21
50.65
0
LINE
8
0
10
62.55625
20
-7
11
75.55625
21
-7
0
LINE
8
0
10
76.05625
20
-6.5
11
76.05625
21
6.5
0
LINE
8
0
10
75.55625
20
7
11
62.55625
21
7
0
LINE
8
0
10
62.05625
20
6.5
11
62.05625
21
-6.5
0
LINE
8
0
10
53.03125
20
12.05
11
66.03125
21
12.05
0
LINE
8
0
10
66.53125
20
12.55
11
66.53125
21
25.55
0
LINE
8
0
10
66.03125
20
26.05
11
53.03125
21
26.05
0
LINE
8
0
10
52.53125
20
25.55
11
52.53125
21
12.55
0
LINE
8
0
10
48.26875
20
31.1
11
61.26875
21
31.1
0
LINE
8
0
10
61.76875
20
31.6
11
61.76875
21
44.6
0
LINE
8
0
10
61.26875
20
45.1
11
48.26875
21
45.1
0
LINE
8
0
10
47.76875
20
44.6
11
47.76875
21
31.6
0
LINE
8
0
10
38.74375
20
50.15
11
51.74375
21
50.15
0
LINE
8
0
10
52.24375
20
50.65
11
52.24375
21
63.65
0
LINE
8
0
10
51.74375
20
64.15
11
38.74375
21
64.15
0
LINE
8
0
10
38.24375
20
63.65
11
38.24375
21
50.65
0
LINE
8
0
10
81.60625
20
-7
11
94.60625
21
-7
0
LINE
8
0
10
95.10625
20
-6.5
11
95.10625
21
6.5
0
LINE
8
0
10
94.60625
20
7
11
81.60625
21
7
0
LINE
8
0
10
81.10625
20
6.5
11
81.10625
21
-6.5
0
LINE
8
0
10
72.08125
20
12.05
11
85.08125
21
12.05
0
LINE
8
0
10
85.58125
20
12.55
11
85.58125
21
25.55
0
LINE
8
0
10
85.08125
20
26.05
11
72.08125
21
26.05
0
LINE
8
0
10
71.58125
20
25.55
11
71.58125
21
12.55
0
LINE
8
0
10
67.31875
20
31.1
11
80.31875
21
31.1
0
LINE
8
0
10
80.81875
20
31.6
11
80.81875
21
44.6
0
LINE
8
0
10
80.31875
20
45.1
11
67.31875
21
45.1
0
LINE
8
0
10
66.81875
20
44.6
11
66.81875
21
31.6
0
LINE
8
0
10
57.79375
20
50.15
11
70.79375
21
50.15
0
LINE
8
0
10
71.29375
20
50.65
11
71.29375
21
63.65
0
LINE
8
0
10
70.79375
20
64.15
11
57.79375
21
64.15
0
LINE
8
0
10
57.29375
20
63.65
11
57.29375
21
50.65
0
LINE
8
0
10
100.65625
20
-7
11
113.65625
21
-7
0
LINE
8
0
10
114.15625
20
-6.5
11
114.15625
21
6.5
0
LINE
8
0
10
113.65625
20
7
11
100.65625
21
7
0
LINE
8
0
10
100.15625
20
6.5
11
100.15625
21
-6.5
0
LINE
8
0
10
91.13125
20
12.05
11
104.13125
21
12.05
0
LINE
8
0
10
104.63125
20
12.55
11
104.63125
21
25.55
0
LINE
8
0
10
104.13125
20
26.05
11
91.13125
21
26.05
0
LINE
8
0
10
90.63125
20
25.55
11
90.63125
21
12.55
0
LINE
8
0
10
86.36875
20
31.1
11
99.36875
21
31.1
0
LINE
8
0
10
99.86875
20
31.6
11
99.86875
21
44.6
0
LINE
8
0
10
99.36875
20
45.1
11
86.36875
21
45.1
0
LINE
8
0
10
85.86875
20
44.6
11
85.86875
21
31.6
0
LINE
8
0
10
76.84375
20
50.15
11
89.84375
21
50.15
0
LINE
8
0
10
90.34375
20
50.65
11
90.34375
21
63.65
0
LINE
8
0
10
89.84375
20
64.15
11
76.84375
21
64.15
0
LINE
8
0
10
76.34375
20
63.65
11
76.34375
21
50.65
0
LINE
8
0
10
119.70625
20
-7
11
132.70625
21
-7
0
LINE
8
0
10
133.20625
20
-6.5
11
133.20625
21
6.5
0
LINE
8
0
10
132.70625
20
7
11
119.70625
21
7
0
LINE
8
0
10
119.20625
20
6.5
11
119.20625
21
-6.5
0
LINE
8
0
10
110.18125
20
12.05
11
123.18125
21
12.05
0
LINE
8
0
10
123.68125
20
12.55
11
123.68125
21
25.55
0
LINE
8
0
10
123.18125
20
26.05
11
110.18125
21
26.05
0
LINE
8
0
10
109.68125
20
25.55
11
109.68125
21
12.55
0
LINE
8
0
10
105.41875
20
31.1
11
118.41875
21
31.1
0
LINE
8
0
10
118.91875
20
31.6
11
118.91875
21
44.6
0
LINE
8
0
10
118.41875
20
45.1
11
105.41875
21
45.1
0
LINE
8
0
10
104.91875
20
44.6
11
104.91875
21
31.6
0
LINE
8
0
10
95.89375
20
50.15
11
108.89375
21
50.15
0
LINE
8
0
10
109.39375
20
50.65
11
109.39375
21
63.65
0
LINE
8
0
10
108.89375
20
64.15
11
95.89375
21
64.15
0
LINE
8
0
10
95.39375
20
63.65
11
95.39375
21
50.65
0
LINE
8
0
10
138.75625
20
-7
11
151.75625
21
-7
0
LINE
8
0
10
152.25625
20
-6.5
11
152.25625
21
6.5
0
LINE
8
0
10
151.75625
20
7
11
138.75625
21
7
0
LINE
8
0
10
138.25625
20
6.5
11
138.25625
21
-6.5
0
LINE
8
0
10
129.23125
20
12.05
11
142.23125
21
12.05
0
LINE
8
0
10
142.73125
20
12.55
11
142.73125
21
25.55
0
LINE
8
0
10
142.23125
20
26.05
11
129.23125
21
26.05
0
LINE
8
0
10
128.73125
20
25.55
11
128.73125
21
12.55
0
LINE
8
0
10
124.46875
20
31.1
11
137.46875
21
31.1
0
LINE
8
0
10
137.96875
20
31.6
11
137.96875
21
44.6
0
LINE
8
0
10
137.46875
20
45.1
11
124.46875
21
45.1
0
LINE
8
0
10
123.96875
20
44.6
11
123.96875
21
31.6
0
LINE
8
0
10
114.94375
20
50.15
11
127.94375
21
50.15
0
LINE
8
0
10
128.44375
20
50.65
11
128.44375
21
63.65
0
LINE
8
0
10
127.94375
20
64.15
11
114.94375
21
64.15
0
LINE
8
0
10
114.44375
20
63.65
11
114.44375
21
50.65
0
LINE
8
0
10
157.80625
20
-7
11
170.80625
21
-7
0
LINE
8
0
10
171.30625
20
-6.5
11
171.30625
21
6.5
0
LINE
8
0
10
170.80625
20
7
11
157.80625
21
7
0
LINE
8
0
10
157.30625
20
6.5
11
157.30625
21
-6.5
0
LINE
8
0
10
148.28125
20
12.05
11
161.28125
21
12.05
0
LINE
8
0
10
161.78125
20
12.55
11
161.78125
21
25.55
0
LINE
8
0
10
161.28125
20
26.05
11
148.28125
21
26.05
0
LINE
8
0
10
147.78125
20
25.55
11
147.78125
21
12.55
0
LINE
8
0
10
143.51875
20
31.1
11
156.51875
21
31.1
0
LINE
8
0
10
157.01875
20
31.6
11
157.01875
21
44.6
0
LINE
8
0
10
156.51875
20
45.1
11
143.51875
21
45.1
0
LINE
8
0
10
143.01875
20
44.6
11
143.01875
21
31.6
0
LINE
8
0
10
133.99375
20
50.15
11
146.99375
21
50.15
0
LINE
8
0
10
147.49375
20
50.65
11
147.49375
21
63.65
0
LINE
8
0
10
146.99375
20
64.15
11
133.99375
21
64.15
0
LINE
8
0
10
133.49375
20
63.65
11
133.49375
21
50.65
0
LINE
8
0
10
176.85625
20
-7
11
189.85625
21
-7
0
LINE
8
0
10
190.35625
20
-6.5
11
190.35625
21
6.5
0
LINE
8
0
10
189.85625
20
7
11
176.85625
21
7
0
LINE
8
0
10
176.35625
20
6.5
11
176.35625
21
-6.5
0
LINE
8
0
10
167.33125
20
12.05
11
180.33125
21
12.05
0
LINE
8
0
10
180.83125
20
12.55
11
180.83125
21
25.55
0
LINE
8
0
10
180.33125
20
26.05
11
167.33125
21
26.05
0
LINE
8
0
10
166.83125
20
25.55
11
166.83125
21
12.55
0
LINE
8
0
10
162.56875
20
31.1
11
175.56875
21
31.1
0
LINE
8
0
10
176.06875
20
31.6
11
176.06875
21
44.6
0
LINE
8
0
10
175.56875
20
45.1
11
162.56875
21
45.1
0
LINE
8
0
10
162.06875
20
44.6
11
162.06875
21
31.6
0
LINE
8
0
10
153.04375
20
50.15
11
166.04375
21
50.15
0
LINE
8
0
10
166.54375
20
50.65
11
166.54375
21
63.65
0
LINE
8
0
10
166.04375
20
64.15
11
153.04375
21
64.15
0
LINE
8
0
10
152.54375
20
63.65
11
152.54375
21
50.65
0
LINE
8
0
10
195.90625
20
-7
11
208.90625
21
-7
0
LINE
8
0
10
209.40625
20
-6.5
11
209.40625
21
6.5
0
LINE
8
0
10
208.90625
20
7
11
195.90625
21
7
0
LINE
8
0
10
195.40625
20
6.5
11
195.40625
21
-6.5
0
LINE
8
0
10
186.38125
20
12.05
11
199.38125
21
12.05
0
LINE
8
0
10
199.88125
20
12.55
11
199.88125
21
25.55
0
LINE
8
0
10
199.38125
20
26.05
11
186.38125
21
26.05
0
LINE
8
0
10
185.88125
20
25.55
11
185.88125
21
12.55
0
LINE
8
0
10
181.61875
20
31.1
11
194.61875
21
31.1
0
LINE
8
0
10
195.11875
20
31.6
11
195.11875
21
44.6
0
LINE
8
0
10
194.61875
20
45.1
11
181.61875
21
45.1
0
LINE
8
0
10
181.11875
20
44.6
11
181.11875
21
31.6
0
LINE
8
0
10
172.09375
20
50.15
11
185.09375
21
50.15
0
LINE
8
0
10
185.59375
20
50.65
11
185.59375
21
63.65
0
LINE
8
0
10
185.09375
20
64.15
11
172.09375
21
64.15
0
LINE
8
0
10
171.59375
20
63.65
11
171.59375
21
50.65
0
LINE
8
0
10
205.43125
20
12.05
11
218.43125
21
12.05
0
LINE
8
0
10
218.93125
20
12.55
11
218.93125
21
25.55
0
LINE
8
0
10
218.43125
20
26.05
11
205.43125
21
26.05
0
LINE
8
0
10
204.93125
20
25.55
11
204.93125
21
12.55
0
LINE
8
0
10
200.66875
20
31.1
11
213.66875
21
31.1
0
LINE
8
0
10
214.16875
20
31.6
11
214.16875
21
44.6
0
LINE
8
0
10
213.66875
20
45.1
11
200.66875
21
45.1
0
LINE
8
0
10
200.16875
20
44.6
11
200.16875
21
31.6
0
LINE
8
0
10
191.14375
20
50.15
11
204.14375
21
50.15
0
LINE
8
0
10
204.64375
20
50.65
11
204.64375
21
63.65
0
LINE
8
0
10
204.14375
20
64.15
11
191.14375
21
64.15
0
LINE
8
0
10
190.64375
20
63.65
11
190.64375
21
50.65
0
LINE
8
0
10
219.71875
20
31.1
11
232.71875
21
31.1
0
LINE
8
0
10
233.21875
20
31.6
11
233.21875
21
44.6
0
LINE
8
0
10
232.71875
20
45.1
11
219.71875
21
45.1
0
LINE
8
0
10
219.21875
20
44.6
11
219.21875
21
31.6
0
LINE
8
0
10
210.19375
20
50.15
11
223.19375
21
50.15
0
LINE
8
0
10
223.69375
20
50.65
11
223.69375
21
63.65
0
LINE
8
0
10
223.19375
20
64.15
11
210.19375
21
64.15
0
LINE
8
0
10
209.69375
20
63.65
11
209.69375
21
50.65
0
LINE
8
0
10
222.1
20
-7
11
235.1
21
-7
0
LINE
8
0
10
235.6
20
-6.5
11
235.6
21
6.5
0
LINE
8
0
10
235.1
20
7
11
222.1
21
7
0
LINE
8
0
10
221.6
20
6.5
11
221.6
21
-6.5
0
LINE
8
0
10
229.24375
20
50.15
11
242.24375
21
50.15
0
LINE
8
0
10
242.74375
20
50.65
11
242.74375
21
63.65
0
LINE
8
0
10
242.24375
20
64.15
11
229.24375
21
64.15
0
LINE
8
0
10
228.74375
20
63.65
11
228.74375
21
50.65
0
LINE
8
0
10
248.29375
20
-7
11
261.29375
21
-7
0
LINE
8
0
10
261.79375
20
-6.5
11
261.79375
21
6.5
0
LINE
8
0
10
261.29375
20
7
11
248.29375
21
7
0
LINE
8
0
10
247.79375
20
6.5
11
247.79375
21
-6.5
0
LINE
8
0
10
236.3875
20
12.05
11
249.3875
21
12.05
0
LINE
8
0
10
249.8875
20
12.55
11
249.8875
21
25.55
0
LINE
8
0
10
249.3875
20
26.05
11
236.3875
21
26.05
0
LINE
8
0
10
235.8875
20
25.55
11
235.8875
21
12.55
0
LINE
8
0
10
243.53125
20
31.1
11
256.53125
21
31.1
0
LINE
8
0
10
257.03125
20
31.6
11
257.03125
21
44.6
0
LINE
8
0
10
256.53125
20
45.1
11
243.53125
21
45.1
0
LINE
8
0
10
243.03125
20
44.6
11
243.03125
21
31.6
0
LINE
8
0
10
248.29375
20
50.15
11
261.29375
21
50.15
0
LINE
8
0
10
261.79375
20
50.65
11
261.79375
21
63.65
0
LINE
8
0
10
261.29375
20
64.15
11
248.29375
21
64.15
0
LINE
8
0
10
247.79375
20
63.65
11
247.79375
21
50.65
0
LINE
8
0
10
-13.64375
20
-26.05
11
-0.64375
21
-26.05
0
LINE
8
0
10
-0.14375
20
-25.55
11
-0.14375
21
-12.55
0
LINE
8
0
10
-0.64375
20
-12.05
11
-13.64375
21
-12.05
0
LINE
8
0
10
-14.14375
20
-12.55
11
-14.14375
21
-25.55
0
LINE
8
0
10
33.98125
20
-26.05
11
46.98125
21
-26.05
0
LINE
8
0
10
47.48125
20
-25.55
11
47.48125
21
-12.55
0
LINE
8
0
10
46.98125
20
-12.05
11
33.98125
21
-12.05
0
LINE
8
0
10
33.48125
20
-12.55
11
33.48125
21
-25.55
0
LINE
8
0
10
76.84375
20
-26.05
11
89.84375
21
-26.05
0
LINE
8
0
10
90.34375
20
-25.55
11
90.34375
21
-12.55
0
LINE
8
0
10
89.84375
20
-12.05
11
76.84375
21
-12.05
0
LINE
8
0
10
76.34375
20
-12.55
11
76.34375
21
-25.55
0
LINE
8
0
10
114.94375
20
-26.05
11
127.94375
21
-26.05
0
LINE
8
0
10
128.44375
20
-25.55
11
128.44375
21
-12.55
0
LINE
8
0
10
127.94375
20
-12.05
11
114.94375
21
-12.05
0
LINE
8
0
10
114.44375
20
-12.55
11
114.44375
21
-25.55
0
LINE
8
0
10
153.04375
20
-26.05
11
166.04375
21
-26.05
0
LINE
8
0
10
166.54375
20
-25.55
11
166.54375
21
-12.55
0
LINE
8
0
10
166.04375
20
-12.05
11
153.04375
21
-12.05
0
LINE
8
0
10
152.54375
20
-12.55
11
152.54375
21
-25.55
0
LINE
8
0
10
195.90625
20
-26.05
11
208.90625
21
-26.05
0
LINE
8
0
10
209.40625
20
-25.55
11
209.40625
21
-12.55
0
LINE
8
0
10
208.90625
20
-12.05
11
195.90625
21
-12.05
0
LINE
8
0
10
195.40625
20
-12.55
11
195.40625
21
-25.55
0
LINE
8
0
10
243.53125
20
-26.05
11
256.53125
21
-26.05
0
LINE
8
0
10
257.03125
20
-25.55
11
257.03125
21
-12.55
0
LINE
8
0
10
256.53125
20
-12.05
11
243.53125
21
-12.05
0
LINE
8
0
10
243.03125
20
-12.55
11
243.03125
21
-25.55
0
LINE
8
0
10
99.39375
20
-27.05
11
105.39375
21
-27.05
0
LINE
8
0
10
105.89375
20
-26.55
11
105.89375
21
-11.55
0
LINE
8
0
10
105.39375
20
-11.05
11
99.39375
21
-11.05
0
LINE
8
0
10
98.89375
20
-11.55
11
98.89375
21
-26.55
0
LINE
8
0
10
175.59375
20
-27.05
11
181.59375
21
-27.05
0
LINE
8
0
10
182.09375
20
-26.55
11
182.09375
21
-11.55
0
LINE
8
0
10
181.59375
20
-11.05
11
175.59375
21
-11.05
0
LINE
8
0
10
175.09375
20
-11.55
11
175.09375
21
-26.55
0
LINE
8
0
10
61.29375
20
-27.05
11
67.29375
21
-27.05
0
LINE
8
0
10
67.79375
20
-26.55
11
67.79375
21
-11.55
0
LINE
8
0
10
67.29375
20
-11.05
11
61.29375
21
-11.05
0
LINE
8
0
10
60.79375
20
-11.55
11
60.79375
21
-26.55
0
LINE
8
0
10
137.49375
20
-27.05
11
143.49375
21
-27.05
0
LINE
8
0
10
143.99375
20
-26.55
11
143.99375
21
-11.55
0
LINE
8
0
10
143.49375
20
-11.05
11
137.49375
21
-11.05
0
LINE
8
0
10
136.99375
20
-11.55
11
136.99375
21
-26.55
0
LINE
8
0
10
8.93
20
-8
11
14.93
21
-8
0
LINE
8
0
10
15.43
20
-7.5
11
15.43
21
7.5
0
LINE
8
0
10
14.93
20
8
11
8.93
21
8
0
LINE
8
0
10
8.43
20
7.5
11
8.43
21
-7.5
0
LINE
8
0
10
251.8175
20
11.05
11
257.8175
21
11.05
0
LINE
8
0
10
258.3175
20
11.55
11
258.3175
21
26.55
0
LINE
8
0
10
257.8175
20
27.05
11
251.8175
21
27.05
0
LINE
8
0
10
251.3175
20
26.55
11
251.3175
21
11.55
0
LINE
8
0
10
-14.93
20
-8
11
-8.93
21
-8
0
LINE
8
0
10
-8.43
20
-7.5
11
-8.43
21
7.5
0
LINE
8
0
10
-8.93
20
8
11
-14.93
21
8
0
LINE
8
0
10
-15.43
20
7.5
11
-15.43
21
-7.5
0
LINE
8
0
10
227.9575
20
11.05
11
233.9575
21
11.05
0
LINE
8
0
10
234.4575
20
11.55
11
234.4575
21
26.55
0
LINE
8
0
10
233.9575
20
27.05
11
227.9575
21
27.05
0
LINE
8
0
10
227.4575
20
26.55
11
227.4575
21
11.55
0
LINE
8
0
10
0
20
0
11
0
21
0
0
LINE
8
0
10
0
20
0
11
0
21
0
0
LINE
8
0
10
0
20
0
11
0
21
0
0
ARC
8
0
10
1.7375
20
12.55
40
0.5
50
270
51
0
0
ARC
8
0
10
1.7375
20
25.55
40
0.5
50
0
51
90
0
ARC
8
0
10
-16.025
20
25.55
40
0.5
50
90
51
180
0
ARC
8
0
10
-16.025
20
12.55
40
0.5
50
180
51
270
0
ARC
8
0
10
132.70625
20
-6.5
40
0.5
50
270
51
0
0
ARC
8
0
10
132.70625
20
6.5
40
0.5
50
0
51
90
0
ARC
8
0
10
119.70625
20
6.5
40
0.5
50
90
51
180
0
ARC
8
0
10
119.70625
20
-6.5
40
0.5
50
180
51
270
0
ARC
8
0
10
6.5
20
-6.5
40
0.5
50
270
51
0
0
ARC
8
0
10
6.5
20
6.5
40
0.5
50
0
51
90
0
ARC
8
0
10
-6.5
20
6.5
40
0.5
50
90
51
180
0
ARC
8
0
10
-6.5
20
-6.5
40
0.5
50
180
51
270
0
ARC
8
0
10
-0.64375
20
31.6
40
0.5
50
270
51
0
0
ARC
8
0
10
-0.64375
20
44.6
40
0.5
50
0
51
90
0
ARC
8
0
10
-13.64375
20
44.6
40
0.5
50
90
51
180
0
ARC
8
0
10
-13.64375
20
31.6
40
0.5
50
180
51
270
0
ARC
8
0
10
-5.40625
20
50.65
40
0.5
50
270
51
0
0
ARC
8
0
10
-5.40625
20
63.65
40
0.5
50
0
51
90
0
ARC
8
0
10
-18.40625
20
63.65
40
0.5
50
90
51
180
0
ARC
8
0
10
-18.40625
20
50.65
40
0.5
50
180
51
270
0
ARC
8
0
10
27.93125
20
12.55
40
0.5
50
270
51
0
0
ARC
8
0
10
27.93125
20
25.55
40
0.5
50
0
51
90
0
ARC
8
0
10
14.93125
20
25.55
40
0.5
50
90
51
180
0
ARC
8
0
10
14.93125
20
12.55
40
0.5
50
180
51
270
0
ARC
8
0
10
23.16875
20
31.6
40
0.5
50
270
51
0
0
ARC
8
0
10
23.16875
20
44.6
40
0.5
50
0
51
90
0
ARC
8
0
10
10.16875
20
44.6
40
0.5
50
90
51
180
0
ARC
8
0
10
10.16875
20
31.6
40
0.5
50
180
51
270
0
ARC
8
0
10
13.64375
20
50.65
40
0.5
50
270
51
0
0
ARC
8
0
10
13.64375
20
63.65
40
0.5
50
0
51
90
0
ARC
8
0
10
0.64375
20
63.65
40
0.5
50
90
51
180
0
ARC
8
0
10
0.64375
20
50.65
40
0.5
50
180
51
270
0
ARC
8
0
10
56.50625
20
-6.5
40
0.5
50
270
51
0
0
ARC
8
0
10
56.50625
20
6.5
40
0.5
50
0
51
90
0
ARC
8
0
10
43.50625
20
6.5
40
0.5
50
90
51
180
0
ARC
8
0
10
43.50625
20
-6.5
40
0.5
50
180
51
270
0
ARC
8
0
10
46.98125
20
12.55
40
0.5
50
270
51
0
0
ARC
8
0
10
46.98125
20
25.55
40
0.5
50
0
51
90
0
ARC
8
0
10
33.98125
20
25.55
40
0.5
50
90
51
180
0
ARC
8
0
10
33.98125
20
12.55
40
0.5
50
180
51
270
0
ARC
8
0
10
42.21875
20
31.6
40
0.5
50
270
51
0
0
ARC
8
0
10
42.21875
20
44.6
40
0.5
50
0
51
90
0
ARC
8
0
10
29.21875
20
44.6
40
0.5
50
90
51
180
0
ARC
8
0
10
29.21875
20
31.6
40
0.5
50
180
51
270
0
ARC
8
0
10
32.69375
20
50.65
40
0.5
50
270
51
0
0
ARC
8
0
10
32.69375
20
63.65
40
0.5
50
0
51
90
0
ARC
8
0
10
19.69375
20
63.65
40
0.5
50
90
51
180
0
ARC
8
0
10
19.69375
20
50.65
40
0.5
50
180
51
270
0
ARC
8
0
10
75.55625
20
-6.5
40
0.5
50
270
51
0
0
ARC
8
0
10
75.55625
20
6.5
40
0.5
50
0
51
90
0
ARC
8
0
10
62.55625
20
6.5
40
0.5
50
90
51
180
0
ARC
8
0
10
62.55625
20
-6.5
40
0.5
50
180
51
270
0
ARC
8
0
10
61.26875
20
31.6
40
0.5
50
270
51
0
0
ARC
8
0
10
61.26875
20
44.6
40
0.5
50
0
51
90
0
ARC
8
0
10
48.26875
20
44.6
40
0.5
50
90
51
180
0
ARC
8
0
10
48.26875
20
31.6
40
0.5
50
180
51
270
0
ARC
8
0
10
51.74375
20
50.65
40
0.5
50
270
51
0
0
ARC
8
0
10
51.74375
20
63.65
40
0.5
50
0
51
90
0
ARC
8
0
10
38.74375
20
63.65
40
0.5
50
90
51
180
0
ARC
8
0
10
38.74375
20
50.65
40
0.5
50
180
51
270
0
ARC
8
0
10
94.60625
20
-6.5
40
0.5
50
270
51
0
0
ARC
8
0
10
94.60625
20
6.5
40
0.5
50
0
51
90
0
ARC
8
0
10
81.60625
20
6.5
40
0.5
50
90
51
180
0
ARC
8
0
10
81.60625
20
-6.5
40
0.5
50
180
51
270
0
ARC
8
0
10
85.08125
20
12.55
40
0.5
50
270
51
0
0
ARC
8
0
10
85.08125
20
25.55
40
0.5
50
0
51
90
0
ARC
8
0
10
72.08125
20
25.55
40
0.5
50
90
51
180
0
ARC
8
0
10
72.08125
20
12.55
40
0.5
50
180
51
270
0
ARC
8
0
10
80.31875
20
31.6
40
0.5
50
270
51
0
0
ARC
8
0
10
80.31875
20
44.6
40
0.5
50
0
51
90
0
ARC
8
0
10
67.31875
20
44.6
40
0.5
50
90
51
180
0
ARC
8
0
10
67.31875
20
31.6
40
0.5
50
180
51
270
0
ARC
8
0
10
70.79375
20
50.65
40
0.5
50
270
51
0
0
ARC
8
0
10
70.79375
20
63.65
40
0.5
50
0
51
90
0
ARC
8
0
10
57.79375
20
63.65
40
0.5
50
90
51
180
0
ARC
8
0
10
57.79375
20
50.65
40
0.5
50
180
51
270
0
ARC
8
0
10
113.65625
20
-6.5
40
0.5
50
270
51
0
0
ARC
8
0
10
113.65625
20
6.5
40
0.5
50
0
51
90
0
ARC
8
0
10
100.65625
20
6.5
40
0.5
50
90
51
180
0
ARC
8
0
10
100.65625
20
-6.5
40
0.5
50
180
51
270
0
ARC
8
0
10
104.13125
20
12.55
40
0.5
50
270
51
0
0
ARC
8
0
10
104.13125
20
25.55
40
0.5
50
0
51
90
0
ARC
8
0
10
91.13125
20
25.55
40
0.5
50
90
51
180
0
ARC
8
0
10
91.13125
20
12.55
40
0.5
50
180
51
270
0
ARC
8
0
10
99.36875
20
31.6
40
0.5
50
270
51
0
0
ARC
8
0
10
99.36875
20
44.6
40
0.5
50
0
51
90
0
ARC
8
0
10
86.36875
20
44.6
40
0.5
50
90
51
180
0
ARC
8
0
10
86.36875
20
31.6
40
0.5
50
180
51
270
0
ARC
8
0
10
89.84375
20
50.65
40
0.5
50
270
51
0
0
ARC
8
0
10
89.84375
20
63.65
40
0.5
50
0
51
90
0
ARC
8
0
10
76.84375
20
63.65
40
0.5
50
90
51
180
0
ARC
8
0
10
76.84375
20
50.65
40
0.5
50
180
51
270
0
ARC
8
0
10
123.18125
20
12.55
40
0.5
50
270
51
0
0
ARC
8
0
10
123.18125
20
25.55
40
0.5
50
0
51
90
0
ARC
8
0
10
110.18125
20
25.55
40
0.5
50
90
51
180
0
ARC
8
0
10
110.18125
20
12.55
40
0.5
50
180
51
270
0
ARC
8
0
10
118.41875
20
31.6
40
0.5
50
270
51
0
0
ARC
8
0
10
118.41875
20
44.6
40
0.5
50
0
51
90
0
ARC
8
0
10
105.41875
20
44.6
40
0.5
50
90
51
180
0
ARC
8
0
10
105.41875
20
31.6
40
0.5
50
180
51
270
0
ARC
8
0
10
108.89375
20
50.65
40
0.5
50
270
51
0
0
ARC
8
0
10
108.89375
20
63.65
40
0.5
50
0
51
90
0
ARC
8
0
10
95.89375
20
63.65
40
0.5
50
90
51
180
0
ARC
8
0
10
95.89375
20
50.65
40
0.5
50
180
51
270
0
ARC
8
0
10
151.75625
20
-6.5
40
0.5
50
270
51
0
0
ARC
8
0
10
151.75625
20
6.5
40
0.5
50
0
51
90
0
ARC
8
0
10
138.75625
20
6.5
40
0.5
50
90
51
180
0
ARC
8
0
10
138.75625
20
-6.5
40
0.5
50
180
51
270
0
ARC
8
0
10
142.23125
20
12.55
40
0.5
50
270
51
0
0
ARC
8
0
10
142.23125
20
25.55
40
0.5
50
0
51
90
0
ARC
8
0
10
129.23125
20
25.55
40
0.5
50
90
51
180
0
ARC
8
0
10
129.23125
20
12.55
40
0.5
50
180
51
270
0
ARC
8
0
10
137.46875
20
31.6
40
0.5
50
270
51
0
0
ARC
8
0
10
137.46875
20
44.6
40
0.5
50
0
51
90
0
ARC
8
0
10
124.46875
20
44.6
40
0.5
50
90
51
180
0
ARC
8
0
10
124.46875
20
31.6
40
0.5
50
180
51
270
0
ARC
8
0
10
127.94375
20
50.65
40
0.5
50
270
51
0
0
ARC
8
0
10
127.94375
20
63.65
40
0.5
50
0
51
90
0
ARC
8
0
10
114.94375
20
63.65
40
0.5
50
90
51
180
0
ARC
8
0
10
114.94375
20
50.65
40
0.5
50
180
51
270
0
ARC
8
0
10
170.80625
20
-6.5
40
0.5
50
270
51
0
0
ARC
8
0
10
170.80625
20
6.5
40
0.5
50
0
51
90
0
ARC
8
0
10
157.80625
20
6.5
40
0.5
50
90
51
180
0
ARC
8
0
10
157.80625
20
-6.5
40
0.5
50
180
51
270
0
ARC
8
0
10
161.28125
20
12.55
40
0.5
50
270
51
0
0
ARC
8
0
10
161.28125
20
25.55
40
0.5
50
0
51
90
0
ARC
8
0
10
148.28125
20
25.55
40
0.5
50
90
51
180
0
ARC
8
0
10
148.28125
20
12.55
40
0.5
50
180
51
270
0
ARC
8
0
10
156.51875
20
31.6
40
0.5
50
270
51
0
0
ARC
8
0
10
156.51875
20
44.6
40
0.5
50
0
51
90
0
ARC
8
0
10
143.51875
20
44.6
40
0.5
50
90
51
180
0
ARC
8
0
10
143.51875
20
31.6
40
0.5
50
180
51
270
0
ARC
8
0
10
146.99375
20
50.65
40
0.5
50
270
51
0
0
ARC
8
0
10
146.99375
20
63.65
40
0.5
50
0
51
90
0
ARC
8
0
10
133.99375
20
63.65
40
0.5
50
90
51
180
0
ARC
8
0
10
133.99375
20
50.65
40
0.5
50
180
51
270
0
ARC
8
0
10
189.85625
20
-6.5
40
0.5
50
270
51
0
0
ARC
8
0
10
189.85625
20
6.5
40
0.5
50
0
51
90
0
ARC
8
0
10
176.85625
20
6.5
40
0.5
50
90
51
180
0
ARC
8
0
10
176.85625
20
-6.5
40
0.5
50
180
51
270
0
ARC
8
0
10
180.33125
20
12.55
40
0.5
50
270
51
0
0
ARC
8
0
10
180.33125
20
25.55
40
0.5
50
0
51
90
0
ARC
8
0
10
167.33125
20
25.55
40
0.5
50
90
51
180
0
ARC
8
0
10
167.33125
20
12.55
40
0.5
50
180
51
270
0
ARC
8
0
10
175.56875
20
31.6
40
0.5
50
270
51
0
0
ARC
8
0
10
175.56875
20
44.6
40
0.5
50
0
51
90
0
ARC
8
0
10
162.56875
20
44.6
40
0.5
50
90
51
180
0
ARC
8
0
10
162.56875
20
31.6
40
0.5
50
180
51
270
0
ARC
8
0
10
166.04375
20
50.65
40
0.5
50
270
51
0
0
ARC
8
0
10
166.04375
20
63.65
40
0.5
50
0
51
90
0
ARC
8
0
10
153.04375
20
63.65
40
0.5
50
90
51
180
0
ARC
8
0
10
153.04375
20
50.65
40
0.5
50
180
51
270
0
ARC
8
0
10
208.90625
20
-6.5
40
0.5
50
270
51
0
0
ARC
8
0
10
208.90625
20
6.5
40
0.5
50
0
51
90
0
ARC
8
0
10
195.90625
20
6.5
40
0.5
50
90
51
180
0
ARC
8
0
10
195.90625
20
-6.5
40
0.5
50
180
51
270
0
ARC
8
0
10
199.38125
20
12.55
40
0.5
50
270
51
0
0
ARC
8
0
10
199.38125
20
25.55
40
0.5
50
0
51
90
0
ARC
8
0
10
186.38125
20
25.55
40
0.5
50
90
51
180
0
ARC
8
0
10
186.38125
20
12.55
40
0.5
50
180
51
270
0
ARC
8
0
10
194.61875
20
31.6
40
0.5
50
270
51
0
0
ARC
8
0
10
194.61875
20
44.6
40
0.5
50
0
51
90
0
ARC
8
0
10
181.61875
20
44.6
40
0.5
50
90
51
180
0
ARC
8
0
10
181.61875
20
31.6
40
0.5
50
180
51
270
0
ARC
8
0
10
185.09375
20
50.65
40
0.5
50
270
51
0
0
ARC
8
0
10
185.09375
20
63.65
40
0.5
50
0
51
90
0
ARC
8
0
10
172.09375
20
63.65
40
0.5
50
90
51
180
0
ARC
8
0
10
172.09375
20
50.65
40
0.5
50
180
51
270
0
ARC
8
0
10
218.43125
20
12.55
40
0.5
50
270
51
0
0
ARC
8
0
10
218.43125
20
25.55
40
0.5
50
0
51
90
0
ARC
8
0
10
205.43125
20
25.55
40
0.5
50
90
51
180
0
ARC
8
0
10
205.43125
20
12.55
40
0.5
50
180
51
270
0
ARC
8
0
10
213.66875
20
31.6
40
0.5
50
270
51
0
0
ARC
8
0
10
213.66875
20
44.6
40
0.5
50
0
51
90
0
ARC
8
0
10
200.66875
20
44.6
40
0.5
50
90
51
180
0
ARC
8
0
10
200.66875
20
31.6
40
0.5
50
180
51
270
0
ARC
8
0
10
204.14375
20
50.65
40
0.5
50
270
51
0
0
ARC
8
0
10
204.14375
20
63.65
40
0.5
50
0
51
90
0
ARC
8
0
10
191.14375
20
63.65
40
0.5
50
90
51
180
0
ARC
8
0
10
191.14375
20
50.65
40
0.5
50
180
51
270
0
ARC
8
0
10
232.71875
20
31.6
40
0.5
50
270
51
0
0
ARC
8
0
10
232.71875
20
44.6
40
0.5
50
0
51
90
0
ARC
8
0
10
219.71875
20
44.6
40
0.5
50
90
51
180
0
ARC
8
0
10
219.71875
20
31.6
40
0.5
50
180
51
270
0
ARC
8
0
10
223.19375
20
50.65
40
0.5
50
270
51
0
0
ARC
8
0
10
223.19375
20
63.65
40
0.5
50
0
51
90
0
ARC
8
0
10
210.19375
20
63.65
40
0.5
50
90
51
180
0
ARC
8
0
10
210.19375
20
50.65
40
0.5
50
180
51
270
0
ARC
8
0
10
235.1
20
-6.5
40
0.5
50
270
51
0
0
ARC
8
0
10
235.1
20
6.5
40
0.5
50
0
51
90
0
ARC
8
0
10
222.1
20
6.5
40
0.5
50
90
51
180
0
ARC
8
0
10
222.1
20
-6.5
40
0.5
50
180
51
270
0
ARC
8
0
10
242.24375
20
50.65
40
0.5
50
270
51
0
0
ARC
8
0
10
242.24375
20
63.65
40
0.5
50
0
51
90
0
ARC
8
0
10
229.24375
20
63.65
40
0.5
50
90
51
180
0
ARC
8
0
10
229.24375
20
50.65
40
0.5
50
180
51
270
0
ARC
8
0
10
261.29375
20
-6.5
40
0.5
50
270
51
0
0
ARC
8
0
10
261.29375
20
6.5
40
0.5
50
0
51
90
0
ARC
8
0
10
248.29375
20
6.5
40
0.5
50
90
51
180
0
ARC
8
0
10
248.29375
20
-6.5
40
0.5
50
180
51
270
0
ARC
8
0
10
249.3875
20
12.55
40
0.5
50
270
51
0
0
ARC
8
0
10
249.3875
20
25.55
40
0.5
50
0
51
90
0
ARC
8
0
10
236.3875
20
25.55
40
0.5
50
90
51
180
0
ARC
8
0
10
236.3875
20
12.55
40
0.5
50
180
51
270
0
ARC
8
0
10
256.53125
20
31.6
40
0.5
50
270
51
0
0
ARC
8
0
10
256.53125
20
44.6
40
0.5
50
0
51
90
0
ARC
8
0
10
243.53125
20
44.6
40
0.5
50
90
51
180
0
ARC
8
0
10
243.53125
20
31.6
40
0.5
50
180
51
270
0
ARC
8
0
10
261.29375
20
50.65
40
0.5
50
270
51
0
0
ARC
8
0
10
261.29375
20
63.65
40
0.5
50
0
51
90
0
ARC
8
0
10
248.29375
20
63.65
40
0.5
50
90
51
180
0
ARC
8
0
10
248.29375
20
50.65
40
0.5
50
180
51
270
0
ARC
8
0
10
-0.64375
20
-25.55
40
0.5
50
270
51
0
0
ARC
8
0
10
-0.64375
20
-12.55
40
0.5
50
0
51
90
0
ARC
8
0
10
-13.64375
20
-12.55
40
0.5
50
90
51
180
0
ARC
8
0
10
-13.64375
20
-25.55
40
0.5
50
180
51
270
0
ARC
8
0
10
46.98125
20
-25.55
40
0.5
50
270
51
0
0
ARC
8
0
10
46.98125
20
-12.55
40
0.5
50
0
51
90
0
ARC
8
0
10
33.98125
20
-12.55
40
0.5
50
90
51
180
0
ARC
8
0
10
33.98125
20
-25.55
40
0.5
50
180
51
270
0
ARC
8
0
10
89.84375
20
-25.55
40
0.5
50
270
51
0
0
ARC
8
0
10
89.84375
20
-12.55
40
0.5
50
0
51
90
0
ARC
8
0
10
76.84375
20
-12.55
40
0.5
50
90
51
180
0
ARC
8
0
10
76.84375
20
-25.55
40
0.5
50
180
51
270
0
ARC
8
0
10
127.94375
20
-25.55
40
0.5
50
270
51
0
0
ARC
8
0
10
127.94375
20
-12.55
40
0.5
50
0
51
90
0
ARC
8
0
10
114.94375
20
-12.55
40
0.5
50
90
51
180
0
ARC
8
0
10
114.94375
20
-25.55
40
0.5
50
180
51
270
0
ARC
8
0
10
166.04375
20
-25.55
40
0.5
50
270
51
0
0
ARC
8
0
10
166.04375
20
-12.55
40
0.5
50
0
51
90
0
ARC
8
0
10
153.04375
20
-12.55
40
0.5
50
90
51
180
0
ARC
8
0
10
153.04375
20
-25.55
40
0.5
50
180
51
270
0
ARC
8
0
10
208.90625
20
-25.55
40
0.5
50
270
51
0
0
ARC
8
0
10
208.90625
20
-12.55
40
0.5
50
0
51
90
0
ARC
8
0
10
195.90625
20
-12.55
40
0.5
50
90
51
180
0
ARC
8
0
10
195.90625
20
-25.55
40
0.5
50
180
51
270
0
ARC
8
0
10
256.53125
20
-25.55
40
0.5
50
270
51
0
0
ARC
8
0
10
256.53125
20
-12.55
40
0.5
50
0
51
90
0
ARC
8
0
10
243.53125
20
-12.55
40
0.5
50
90
51
180
0
ARC
8
0
10
243.53125
20
-25.55
40
0.5
50
180
51
270
0
ARC
8
0
10
37.45625
20
-6.5
40
0.5
50
270
51
0
0
ARC
8
0
10
37.45625
20
6.5
40
0.5
50
0
51
90
0
ARC
8
0
10
24.45625
20
6.5
40
0.5
50
90
51
180
0
ARC
8
0
10
24.45625
20
-6.5
40
0.5
50
180
51
270
0
ARC
8
0
10
66.03125
20
12.55
40
0.5
50
270
51
0
0
ARC
8
0
10
66.03125
20
25.55
40
0.5
50
0
51
90
0
ARC
8
0
10
53.03125
20
25.55
40
0.5
50
90
51
180
0
ARC
8
0
10
53.03125
20
12.55
40
0.5
50
180
51
270
0
ARC
8
0
10
105.39375
20
-26.55
40
0.5
50
270
51
0
0
ARC
8
0
10
105.39375
20
-11.55
40
0.5
50
0
51
90
0
ARC
8
0
10
99.39375
20
-11.55
40
0.5
50
90
51
180
0
ARC
8
0
10
99.39375
20
-26.55
40
0.5
50
180
51
270
0
ARC
8
0
10
181.59375
20
-26.55
40
0.5
50
270
51
0
0
ARC
8
0
10
181.59375
20
-11.55
40
0.5
50
0
51
90
0
ARC
8
0
10
175.59375
20
-11.55
40
0.5
50
90
51
180
0
ARC
8
0
10
175.59375
20
-26.55
40
0.5
50
180
51
270
0
ARC
8
0
10
67.29375
20
-26.55
40
0.5
50
270
51
0
0
ARC
8
0
10
67.29375
20
-11.55
40
0.5
50
0
51
90
0
ARC
8
0
10
61.29375
20
-11.55
40
0.5
50
90
51
180
0
ARC
8
0
10
61.29375
20
-26.55
40
0.5
50
180
51
270
0
ARC
8
0
10
143.49375
20
-26.55
40
0.5
50
270
51
0
0
ARC
8
0
10
143.49375
20
-11.55
40
0.5
50
0
51
90
0
ARC
8
0
10
137.49375
20
-11.55
40
0.5
50
90
51
180
0
ARC
8
0
10
137.49375
20
-26.55
40
0.5
50
180
51
270
0
ARC
8
0
10
14.93
20
-7.5
40
0.5
50
270
51
0
0
ARC
8
0
10
14.93
20
7.5
40
0.5
50
0
51
90
0
ARC
8
0
10
8.93
20
7.5
40
0.5
50
90
51
180
0
ARC
8
0
10
8.93
20
-7.5
40
0.5
50
180
51
270
0
ARC
8
0
10
257.8175
20
11.55
40
0.5
50
270
51
0
0
ARC
8
0
10
257.8175
20
26.55
40
0.5
50
0
51
90
0
ARC
8
0
10
251.8175
20
26.55
40
0.5
50
90
51
180
0
ARC
8
0
10
251.8175
20
11.55
40
0.5
50
180
51
270
0
ARC
8
0
10
-8.93
20
-7.5
40
0.5
50
270
51
0
0
ARC
8
0
10
-8.93
20
7.5
40
0.5
50
0
51
90
0
ARC
8
0
10
-14.93
20
7.5
40
0.5
50
90
51
180
0
ARC
8
0
10
-14.93
20
-7.5
40
0.5
50
180
51
270
0
ARC
8
0
10
233.9575
20
11.55
40
0.5
50
270
51
0
0
ARC
8
0
10
233.9575
20
26.55
40
0.5
50
0
51
90
0
ARC
8
0
10
227.9575
20
26.55
40
0.5
50
90
51
180
0
ARC
8
0
10
227.9575
20
11.55
40
0.5
50
180
51
270
0
LINE
8
0
10
21.9918262
20
-29.325
11
19.2668262
21
-34.0448385
0
LINE
8
0
10
14.0706738
20
-34.0448385
11
11.3456738
21
-29.325
0
ARC
8
0
10
23.2908643
20
-30.075
40
1.5
50
90
51
149.9999999
0
ARC
8
0
10
10.0466357
20
-30.075
40
1.5
50
30.0000001
51
90
0
ARC
8
0
10
16.66875
20
-32.5448385
40
3
50
210.0000001
51
329.9999999
0
CIRCLE
8
0
10
16.66875
20
-32.5448385
40
1.6
0
LINE
8
0
10
231.5418262
20
-29.325
11
228.8168262
21
-34.0448385
0
LINE
8
0
10
223.6206738
20
-34.0448385
11
220.8956738
21
-29.325
0
ARC
8
0
10
232.8408643
20
-30.075
40
1.5
50
90
51
149.9999999
0
ARC
8
0
10
219.5966357
20
-30.075
40
1.5
50
30.0000001
51
90
0
ARC
8
0
10
226.21875
20
-32.5448385
40
3
50
210.0000001
51
329.9999999
0
CIRCLE
8
0
10
226.21875
20
-32.5448385
40
1.6
0
LINE
8
0
10
126.7668262
20
-29.325
11
124.0418262
21
-34.0448385
0
LINE
8
0
10
118.8456738
20
-34.0448385
11
116.1206738
21
-29.325
0
ARC
8
0
10
128.0658643
20
-30.075
40
1.5
50
90
51
149.9999999
0
ARC
8
0
10
114.8216357
20
-30.075
40
1.5
50
30.0000001
51
90
0
ARC
8
0
10
121.44375
20
-32.5448385
40
3
50
210.0000001
51
329.9999999
0
CIRCLE
8
0
10
121.44375
20
-32.5448385
40
1.6
0
LINE
8
0
10
8.8206738
20
67.425
11
11.5456738
21
72.1448385
0
LINE
8
0
10
16.7418262
20
72.1448385
11
19.4668262
21
67.425
0
ARC
8
0
10
7.5216357
20
68.175
40
1.5
50
270
51
329.9999999
0
ARC
8
0
10
20.7658643
20
68.175
40
1.5
50
570.0000001
51
630
0
ARC
8
0
10
14.14375
20
70.6448385
40
3
50
390.0000001
51
509.9999999
0
CIRCLE
8
0
10
14.14375
20
70.6448385
40
1.6
0
LINE
8
0
10
116.1206738
20
67.425
11
118.8456738
21
72.1448385
0
LINE
8
0
10
124.0418262
20
72.1448385
11
126.7668262
21
67.425
0
ARC
8
0
10
114.8216357
20
68.175
40
1.5
50
270
51
329.9999999
0
ARC
8
0
10
128.0658643
20
68.175
40
1.5
50
570.0000001
51
630
0
ARC
8
0
10
121.44375
20
70.6448385
40
3
50
390.0000001
51
509.9999999
0
CIRCLE
8
0
10
121.44375
20
70.6448385
40
1.6
0
LINE
8
0
10
223.4206738
20
67.425
11
226.1456738
21
72.1448385
0
LINE
8
0
10
231.3418262
20
72.1448385
11
234.0668262
21
67.425
0
ARC
8
0
10
222.1216357
20
68.175
40
1.5
50
270
51
329.9999999
0
ARC
8
0
10
235.3658643
20
68.175
40
1.5
50
570.0000001
51
630
0
ARC
8
0
10
228.74375
20
70.6448385
40
3
50
390.0000001
51
509.9999999
0
CIRCLE
8
0
10
228.74375
20
70.6448385
40
1.6
0
ENDSEC
0
EOF